<?xml version="1.0" encoding="UTF-8"?>
<svg id="Layer_1" xmlns="http://www.w3.org/2000/svg" version="1.1" viewBox="0 0 283.46 114.55">
  <!-- Generator: Adobe Illustrator 30.0.0, SVG Export Plug-In . SVG Version: 2.1.1 Build 123)  -->
  <defs>
    <style>
      .st0, .st1 {
        fill: #fff;
      }

      .st1 {
        font-family: CenturyGothic, 'Century Gothic';
        font-size: 14.46px;
        letter-spacing: .45em;
      }
    </style>
  </defs>
  <g>
    <path class="st0" d="M166.53,27.45l21.28,45.63h-4.93l-7.18-15.01h-19.66l-7.11,15.01h-5.09l21.56-45.63h1.12ZM165.96,37.14l-7.82,16.52h15.6l-7.78-16.52Z"/>
    <path class="st0" d="M237.32,35.11l-3.54,3.35c-2.54-2.5-5.33-4.4-8.36-5.69-3.03-1.29-5.98-1.94-8.86-1.94-3.58,0-6.99.88-10.22,2.64-3.24,1.76-5.74,4.14-7.52,7.15-1.78,3.01-2.67,6.19-2.67,9.54s.92,6.7,2.76,9.79,4.38,5.52,7.63,7.29c3.25,1.77,6.8,2.65,10.67,2.65,4.69,0,8.67-1.32,11.91-3.97,3.25-2.65,5.17-6.08,5.77-10.3h-14.55v-4.4h19.67c-.04,7.05-2.14,12.65-6.28,16.8-4.15,4.15-9.69,6.22-16.64,6.22-8.44,0-15.12-2.87-20.04-8.62-3.79-4.43-5.68-9.54-5.68-15.36,0-4.32,1.08-8.34,3.26-12.07,2.17-3.72,5.15-6.63,8.93-8.73,3.79-2.1,8.07-3.15,12.84-3.15,3.87,0,7.51.7,10.92,2.09s6.74,3.63,9.99,6.72Z"/>
    <path class="st0" d="M247.15,27.45h26.15v4.47h-21.59v14.3h21.4v4.47h-21.4v17.93h21.4v4.47h-25.96V27.45Z"/>
  </g>
  <g>
    <path class="st0" d="M21.95,29.05h25.97v4.44h-21.44v14.2h21.25v4.44h-21.25v17.81h21.25v4.44h-25.78V29.05Z"/>
    <path class="st0" d="M52.81,27.91h4.31v46.45h-4.31V27.91Z"/>
    <path class="st0" d="M61.7,55.45h16.94v3.76h-16.94v-3.76Z"/>
  </g>
  <path class="st0" d="M91.55,23.87s2.42.04,6.42-1.96l6-3-.06,25.58h9.87v-25.58s3.19,2,6.19,3c3.28,1.09,6.28,1.96,6.28,1.96v50.22s0,7.19-3.89,11.08c-2.36,2.36-8.58,7.17-8.58,7.17v-37.45h-9.87v37.45s-5.26-4.93-8.81-8.47-3.55-11.03-3.55-11.03V23.87Z"/>
  <g id="X7cYV1">
    <path class="st0" d="M83.56,16.56c7.27-1,14.01-3.38,20.34-6.82,1.15-.62,2.31-1.23,3.39-1.97.94-.64,1.69-.63,2.68-.01,4,2.49,8.19,4.66,12.68,6.08,3.19,1.01,6.48,1.68,9.73,2.5.4.1.82.16,1.34.26,0,.42,0,.8,0,1.18,0,9.55.02,50.25,0,59.79,0,3.4-1.31,6.41-3.02,9.26-3.19,5.28-7.69,9.3-12.73,12.71-2.72,1.84-5.63,3.39-8.44,5.09-.61.37-1.12.35-1.76.01-6.71-3.53-12.97-7.66-17.99-13.43-2.91-3.35-5.21-7.05-6.03-11.5-.13-.69-.2-1.4-.2-2.11,0-9.62,0-50.39,0-60.01,0-.31-.02-.62,0-1.04ZM129.07,34.2s0,0,0,0c0-4.21-.02-8.42,0-12.62,0-.75-.17-1.11-.97-1.29-6.5-1.43-12.6-3.91-18.35-7.25-.82-.47-1.39-.46-2.19,0-5.73,3.3-11.79,5.79-18.26,7.22-.87.19-1.1.53-1.1,1.4.04,8.06-.02,47.27.06,55.34.01,1.45.31,2.97.83,4.32.63,1.63,1.49,3.21,2.51,4.64,4.28,5.98,10.17,10.03,16.5,13.52.3.16.84.14,1.14-.03,1.22-.64,2.4-1.35,3.57-2.08,4.84-3.05,9.34-6.53,12.73-11.21,1.86-2.57,3.44-5.31,3.5-8.6.07-4.07.02-39.28.02-43.35Z"/>
  </g>
  <text class="st1" transform="translate(137.98 90.13)"><tspan x="0" y="0">assurances</tspan></text>
</svg>