<?xml version="1.0" encoding="UTF-8"?>
<svg id="Layer_1" xmlns="http://www.w3.org/2000/svg" version="1.1" viewBox="0 0 80.41 114.55">
  <!-- Generator: Adobe Illustrator 30.0.0, SVG Export Plug-In . SVG Version: 2.1.1 Build 123)  -->
  <defs>
    <style>
      .st0 {
        fill: #fff;
      }
    </style>
  </defs>
  <path class="st0" d="M22.86,25.82s2.42.04,6.42-1.96l6-3-.06,25.58h9.87v-25.58s3.19,2,6.19,3c3.28,1.09,6.28,1.96,6.28,1.96v50.22s0,7.19-3.89,11.08c-2.36,2.36-8.58,7.17-8.58,7.17v-37.45h-9.87v37.45s-5.26-4.93-8.81-8.47-3.55-11.03-3.55-11.03V25.82Z"/>
  <g id="X7cYV1">
    <path class="st0" d="M14.87,18.52c7.27-1,14.01-3.38,20.34-6.82,1.15-.62,2.31-1.23,3.39-1.97.94-.64,1.69-.63,2.68-.01,4,2.49,8.19,4.66,12.68,6.08,3.19,1.01,6.48,1.68,9.73,2.5.4.1.82.16,1.34.26,0,.42,0,.8,0,1.18,0,9.55.02,50.25,0,59.79,0,3.4-1.31,6.41-3.02,9.26-3.19,5.28-7.69,9.3-12.73,12.71-2.72,1.84-5.63,3.39-8.44,5.09-.61.37-1.12.35-1.76.01-6.71-3.53-12.97-7.66-17.99-13.43-2.91-3.35-5.21-7.05-6.03-11.5-.13-.69-.2-1.4-.2-2.11,0-9.62,0-50.39,0-60.01,0-.31-.02-.62,0-1.04ZM60.38,36.16s0,0,0,0c0-4.21-.02-8.42,0-12.62,0-.75-.17-1.11-.97-1.29-6.5-1.43-12.6-3.91-18.35-7.25-.82-.47-1.39-.46-2.19,0-5.73,3.3-11.79,5.79-18.26,7.22-.87.19-1.1.53-1.1,1.4.04,8.06-.02,47.27.06,55.34.01,1.45.31,2.97.83,4.32.63,1.63,1.49,3.21,2.51,4.64,4.28,5.98,10.17,10.03,16.5,13.52.3.16.84.14,1.14-.03,1.22-.64,2.4-1.35,3.57-2.08,4.84-3.05,9.34-6.53,12.73-11.21,1.86-2.57,3.44-5.31,3.5-8.6.07-4.07.02-39.28.02-43.35Z"/>
  </g>
</svg>